# xmcd CD database file
#
# Track frame offsets:
#	150
#	17512
#	56512
#	81912
#	117062
#	138400
#	181600
#	210225
#	247812
#
# Disc length: 3868 seconds
#
# Revision: 8
# Processed by: cddbd v1.5.2PL0 Copyright (c) Steve Scherf et al.
# Submitted via: CDex 1.70beta2
#
DISCID=630f1a09
DTITLE=Vince Mendoza - Arif Mardin Project - Jazzpaña
DYEAR=1993
DGENRE=Jazz
TTITLE0=El Vito Cante
TTITLE1=Tangos
TTITLE2=Entre Tinieblas
TTITLE3=Tanguillo
TTITLE4=Soy Gitano
TTITLE5=Bulería
TTITLE6=Suite Fraternidad: First Movement Generalife
TTITLE7=Suite Fraternidad: Second Movement Albacin
TTITLE8=El Vito En Gran Tamaño
EXTD=guest:  Michael Brecker,  Al Di Meola, Peter Ekstine, Dieter Ilg, Steve \nKhan, Freddie Santiago YEAR: 1993
EXTT0=
EXTT1=
EXTT2=
EXTT3=
EXTT4=
EXTT5=
EXTT6=
EXTT7=
EXTT8=
PLAYORDER=
